<?xml version="1.0" encoding="UTF-8" standalone="no"?>
<svg
   height="50px"
   viewBox="0 -960 960 960"
   width="50px"
   fill="#75df75"
   version="1.1"
   id="svg69"
   xml:space="preserve"
   xmlns="http://www.w3.org/2000/svg"
   xmlns:svg="http://www.w3.org/2000/svg"><defs
     id="defs73" /><path
     d="m 301.52905,-101.52905 q -33,0 -56.5,-23.50001 -23.5,-23.5 -23.5,-56.5 0,-33 23.5,-56.5 23.5,-23.5 56.5,-23.5 33,0 56.5,23.5 23.5,23.5 23.5,56.5 0,33 -23.5,56.5 -23.5,23.50001 -56.5,23.50001 z m 400,0 q -33,0 -56.5,-23.50001 -23.5,-23.5 -23.5,-56.5 0,-33 23.5,-56.5 23.5,-23.5 56.5,-23.5 33,0 56.5,23.5 23.5,23.5 23.5,56.5 0,33 -23.5,56.5 -23.5,23.50001 -56.5,23.50001 z m -434,-640.00001 96,200 h 280 l 110,-200 z m -38,-80 h 590 q 23,0 35,20.5 12,20.5 1,41.5 l -142,256 q -11,20 -29.5,31 -18.5,11 -40.5,11 h -298 l -44,80 h 480 v 80 h -480 q -45,0 -68,-39.5 -23,-39.5 -2,-78.5 l 54,-98 -144,-304 H 61.529052 v -80 H 191.52905 Z m 134,280 h 280 z"
     id="path67" /><g
     style="fill:#ff0000"
     id="g146"
     transform="matrix(0.28515,0,0,0.27368668,298.41124,-546.52276)"><path
       d="m 691.72392,4.161423 q -72.81238,0 -136.85217,-27.633609 -64.0398,-27.63361 -111.41169,-75.00551 -47.37189,-47.371904 -75.00551,-111.411704 -27.63362,-64.0398 -27.63362,-136.85217 0,-72.81238 27.63362,-136.85217 27.63362,-64.0398 75.00551,-111.41169 47.37189,-47.37189 111.41169,-75.00551 64.03979,-27.63362 136.85217,-27.63362 72.81237,0 136.85217,27.63362 64.0398,27.63362 111.41169,75.00551 47.37192,47.37189 75.00552,111.41169 27.6337,64.03979 27.6337,136.85217 0,72.81237 -27.6337,136.85217 -27.6336,64.0398 -75.00552,111.411704 -47.37189,47.3719 -111.41169,75.00551 -64.0398,27.633609 -136.85217,27.633609 z m 0,-70.180599 q 117.5525,0 199.13745,-81.584944 81.58494,-81.58495 81.58494,-199.13745 0,-117.55251 -81.58494,-199.13745 -81.58495,-81.58493 -199.13745,-81.58493 -117.55251,0 -199.13745,81.58493 -81.58493,81.58494 -81.58493,199.13745 0,117.5525 81.58493,199.13745 81.58494,81.584944 199.13745,81.584944 z m 0,-280.722394 z m -17.54515,175.45148 h 70.18059 V -522.19307 H 603.99817 v 70.1806 h 70.1806 z"
       id="path137"
       style="stroke-width:0.877255" /></g></svg>
