                         <svg
                          xmlns="http://www.w3.org/2000/svg"
                          xmlns:xlink="http://www.w3.org/1999/xlink"
                          width="500"
                          viewBox="0 0 375 374.999991"
                          height="500"
                          preserveAspectRatio="xMidYMid meet"
                        >
                          <defs>
                            <clipPath id="5d31f59c60">
                              <path
                                d="M 29.359375 243 L 74 243 L 74 288 L 29.359375 288 Z M 29.359375 243 "
                                clip-rule="nonzero"
                              ></path>
                            </clipPath>
                            <clipPath id="ffc17c2beb">
                              <path
                                d="M 301 245 L 345.859375 245 L 345.859375 289 L 301 289 Z M 301 245 "
                                clip-rule="nonzero"
                              ></path>
                            </clipPath>
                            <clipPath id="f78df403aa">
                              <path
                                d="M 301 86 L 345.859375 86 L 345.859375 131 L 301 131 Z M 301 86 "
                                clip-rule="nonzero"
                              ></path>
                            </clipPath>
                            <clipPath id="b88cdec6ea">
                              <path
                                d="M 29.359375 86 L 74 86 L 74 131 L 29.359375 131 Z M 29.359375 86 "
                                clip-rule="nonzero"
                              ></path>
                            </clipPath>
                          </defs>
                          <path
                            fill="#ffffff"
                            d="M 79.191406 254.359375 L 120.378906 230.460938 L 167.160156 305.207031 C 169.191406 303.683594 171.226562 302.15625 173.769531 301.140625 L 126.988281 226.394531 L 153.9375 210.628906 C 152.414062 208.597656 151.394531 206.5625 150.378906 204.019531 L 122.921875 219.78125 L 102.582031 187.75 L 122.410156 155.714844 L 149.871094 171.476562 C 150.886719 168.933594 151.902344 166.902344 153.429688 164.867188 L 126.480469 149.105469 L 173.261719 74.355469 C 170.71875 73.339844 168.683594 71.8125 166.648438 70.289062 L 119.871094 145.542969 L 77.664062 121.136719 C 76.648438 123.679688 75.121094 125.714844 73.597656 127.746094 L 115.800781 152.15625 L 98.003906 181.136719 L 68.003906 133.339844 C 65.96875 134.867188 63.429688 135.882812 60.886719 136.898438 L 93.9375 187.75 L 62.410156 238.089844 C 64.953125 239.105469 66.988281 240.121094 69.019531 241.648438 L 98.003906 194.867188 L 115.800781 223.851562 L 74.613281 247.75 C 76.648438 249.785156 78.171875 251.816406 79.191406 254.359375 Z M 79.191406 254.359375 "
                            fill-opacity="1"
                            fill-rule="nonzero"
                          ></path>
                          <path
                            fill="#ffffff"
                            d="M 297.839844 92.660156 L 214.449219 55.542969 C 213.9375 58.085938 212.414062 60.628906 211.398438 62.660156 L 294.789062 99.78125 C 295.804688 97.238281 296.820312 94.695312 297.839844 92.660156 Z M 297.839844 92.660156 "
                            fill-opacity="1"
                            fill-rule="nonzero"
                          ></path>
                          <path
                            fill="#ffffff"
                            d="M 75.121094 283.34375 L 157.496094 319.953125 C 158.003906 317.410156 159.53125 314.871094 160.546875 312.835938 L 79.191406 276.734375 C 78.171875 279.277344 76.648438 281.308594 75.121094 283.34375 Z M 75.121094 283.34375 "
                            fill-opacity="1"
                            fill-rule="nonzero"
                          ></path>
                          <path
                            fill="#ffffff"
                            d="M 160.546875 62.660156 C 159.53125 60.628906 158.003906 58.085938 157.496094 55.542969 L 76.140625 91.644531 C 77.664062 93.679688 78.683594 96.222656 79.699219 98.253906 Z M 160.546875 62.660156 "
                            fill-opacity="1"
                            fill-rule="nonzero"
                          ></path>
                          <path
                            fill="#ffffff"
                            d="M 211.398438 312.835938 C 212.921875 314.871094 213.9375 317.410156 214.449219 319.953125 L 297.839844 282.835938 C 296.3125 280.800781 295.296875 278.257812 294.789062 275.714844 Z M 211.398438 312.835938 "
                            fill-opacity="1"
                            fill-rule="nonzero"
                          ></path>
                          <path
                            fill="#ffffff"
                            d="M 273.941406 194.867188 L 304.957031 244.191406 C 306.992188 242.664062 309.027344 241.140625 311.566406 240.121094 L 278.007812 187.75 L 311.058594 134.867188 C 308.515625 133.847656 306.484375 132.324219 304.449219 130.796875 L 273.941406 180.628906 L 256.144531 151.644531 L 300.382812 126.222656 C 298.855469 124.1875 297.332031 122.152344 296.3125 119.613281 L 252.074219 145.542969 L 204.785156 70.289062 C 202.753906 71.8125 200.71875 73.339844 198.175781 74.355469 L 244.957031 149.105469 L 220.039062 163.851562 C 221.566406 165.882812 223.09375 167.917969 224.109375 170.460938 L 249.023438 155.714844 L 269.363281 187.75 L 249.023438 219.78125 L 224.109375 205.035156 C 223.09375 207.578125 221.566406 209.613281 220.039062 211.648438 L 244.957031 226.394531 L 198.175781 301.140625 C 200.71875 302.15625 202.753906 303.683594 204.785156 305.207031 L 251.566406 229.953125 L 295.804688 255.886719 C 296.820312 253.34375 297.839844 251.308594 299.871094 249.273438 L 255.636719 223.851562 Z M 273.941406 194.867188 "
                            fill-opacity="1"
                            fill-rule="nonzero"
                          ></path>
                          <g clip-path="url(#5d31f59c60)">
                            <path
                              fill="#ffffff"
                              d="M 51.734375 243.683594 C 39.527344 243.683594 29.867188 253.851562 29.867188 265.546875 C 29.867188 277.75 39.527344 287.410156 51.734375 287.410156 C 63.9375 287.410156 73.597656 277.242188 73.597656 265.546875 C 73.597656 253.34375 63.9375 243.683594 51.734375 243.683594 Z M 51.734375 243.683594 "
                              fill-opacity="1"
                              fill-rule="nonzero"
                            ></path>
                          </g>
                          <path
                            fill="#ffffff"
                            d="M 185.972656 69.273438 C 198.175781 69.273438 207.835938 59.609375 207.835938 47.40625 C 207.835938 35.203125 198.175781 25.035156 185.972656 25.035156 C 173.769531 25.035156 164.109375 35.203125 164.109375 46.898438 C 164.109375 59.101562 173.769531 69.273438 185.972656 69.273438 Z M 185.972656 69.273438 "
                            fill-opacity="1"
                            fill-rule="nonzero"
                          ></path>
                          <g clip-path="url(#ffc17c2beb)">
                            <path
                              fill="#ffffff"
                              d="M 323.261719 245.207031 C 311.058594 245.207031 301.398438 254.867188 301.398438 267.070312 C 301.398438 279.277344 311.058594 288.9375 323.261719 288.9375 C 335.46875 288.9375 345.128906 279.277344 345.128906 267.070312 C 345.636719 255.375 335.46875 245.207031 323.261719 245.207031 Z M 323.261719 245.207031 "
                              fill-opacity="1"
                              fill-rule="nonzero"
                            ></path>
                          </g>
                          <path
                            fill="#ffffff"
                            d="M 185.972656 306.226562 C 173.769531 306.226562 163.597656 315.886719 163.597656 328.089844 C 163.597656 340.292969 173.769531 349.953125 185.972656 349.953125 C 198.175781 349.953125 207.835938 340.292969 207.835938 328.089844 C 207.835938 316.394531 198.175781 306.226562 185.972656 306.226562 Z M 185.972656 306.226562 "
                            fill-opacity="1"
                            fill-rule="nonzero"
                          ></path>
                          <g clip-path="url(#f78df403aa)">
                            <path
                              fill="#ffffff"
                              d="M 323.261719 130.289062 C 335.46875 130.289062 345.128906 120.121094 345.128906 108.425781 C 345.128906 96.222656 334.957031 86.050781 323.261719 86.050781 C 311.058594 86.050781 301.398438 95.710938 301.398438 108.425781 C 301.398438 120.121094 311.058594 130.289062 323.261719 130.289062 Z M 323.261719 130.289062 "
                              fill-opacity="1"
                              fill-rule="nonzero"
                            ></path>
                          </g>
                          <g clip-path="url(#b88cdec6ea)">
                            <path
                              fill="#ffffff"
                              d="M 51.734375 130.289062 C 63.9375 130.289062 73.597656 120.121094 73.597656 108.425781 C 73.597656 96.222656 63.9375 86.050781 51.734375 86.050781 C 39.527344 86.050781 29.867188 95.710938 29.867188 108.425781 C 29.359375 120.121094 39.527344 130.289062 51.734375 130.289062 Z M 51.734375 130.289062 "
                              fill-opacity="1"
                              fill-rule="nonzero"
                            ></path>
                          </g>
                          <path
                            fill="#ffffff"
                            d="M 154.445312 187.75 C 154.445312 206.054688 169.191406 220.800781 187.496094 220.800781 C 205.804688 220.800781 220.550781 206.054688 220.550781 187.75 C 220.550781 169.441406 205.804688 154.695312 187.496094 154.695312 C 169.191406 154.695312 154.445312 169.441406 154.445312 187.75 Z M 154.445312 187.75 "
                            fill-opacity="1"
                            fill-rule="nonzero"
                          ></path>
                        </svg>