<svg xmlns="http://www.w3.org/2000/svg" width="40" height="40" viewBox="0 0 40 40" fill="none"><mask id="mask0_120_161" style="mask-type:alpha" maskUnits="userSpaceOnUse" x="0" y="0" width="40" height="40"><rect width="40" height="40" fill="#D9D9D9"></rect></mask><g mask="url(#mask0_120_161)"><path d="M32.3337 15.625L31.3615 14.6528L32.3658 13.6347C32.5795 13.421 32.6863 13.1806 32.6863 12.9135C32.6863 12.6464 32.5795 12.406 32.3658 12.1923L27.8081 7.63463C27.5944 7.42096 27.354 7.31413 27.0869 7.31413C26.8198 7.31413 26.5794 7.42096 26.3657 7.63463L25.3476 8.63892L24.3337 7.62505L25.2632 6.65388C25.7525 6.16457 26.3519 5.92687 27.0613 5.94076C27.7707 5.95464 28.37 6.20624 28.8594 6.69555L33.3049 11.141C33.7942 11.6304 34.0388 12.2228 34.0388 12.9183C34.0388 13.6138 33.7942 14.2062 33.3049 14.6955L32.3337 15.625ZM14.7375 33.2629C14.2482 33.7522 13.6558 33.9968 12.9603 33.9968C12.2648 33.9968 11.6724 33.7522 11.183 33.2629L6.69054 28.7703C6.21973 28.2926 5.98433 27.7141 5.98433 27.0349C5.98433 26.3557 6.21973 25.7807 6.69054 25.3099L7.66704 24.3334L8.68091 25.3195L7.69479 26.3238C7.48112 26.5374 7.37429 26.7778 7.37429 27.0449C7.37429 27.312 7.48112 27.5524 7.69479 27.7661L12.2343 32.3056C12.448 32.5193 12.6884 32.6261 12.9555 32.6261C13.2226 32.6261 13.463 32.5193 13.6767 32.3056L14.6809 31.3195L15.667 32.3334L14.7375 33.2629ZM30.9587 22.2735L33.2034 20.0289C33.417 19.8152 33.5239 19.5695 33.5239 19.2917C33.5239 19.0139 33.417 18.7682 33.2034 18.5545L21.4459 6.79705C21.2322 6.58338 20.9865 6.47654 20.7087 6.47654C20.4309 6.47654 20.1852 6.58338 19.9715 6.79705L17.7269 9.04171C17.5132 9.25538 17.4063 9.49577 17.4063 9.76288C17.4063 10.03 17.5132 10.2703 17.7269 10.484L29.5164 22.2735C29.7301 22.4872 29.9705 22.5941 30.2375 22.5941C30.5047 22.5941 30.745 22.4872 30.9587 22.2735ZM20.0292 33.203L22.3017 30.9488C22.5153 30.7351 22.6222 30.4947 22.6222 30.2276C22.6222 29.9605 22.5153 29.7201 22.3017 29.5065L10.494 17.6988C10.2803 17.4851 10.0399 17.3783 9.77279 17.3783C9.50571 17.3783 9.26533 17.4851 9.05166 17.6988L6.79737 19.9712C6.58371 20.1849 6.47687 20.4306 6.47687 20.7084C6.47687 20.9862 6.58371 21.2319 6.79737 21.4455L18.5549 33.203C18.7685 33.4167 19.0143 33.5235 19.292 33.5235C19.5698 33.5235 19.8155 33.4167 20.0292 33.203ZM19.0527 24.2394L24.2493 19.0246L20.9758 15.7511L15.761 20.9477L19.0527 24.2394ZM21.0046 34.2073C20.5351 34.6781 19.9645 34.9135 19.293 34.9135C18.6214 34.9135 18.0573 34.6781 17.6008 34.2073L5.79308 22.3996C5.3223 21.9443 5.08691 21.3809 5.08691 20.7093C5.08691 20.0377 5.3223 19.4666 5.79308 18.9958L8.03775 16.7126C8.51555 16.2419 9.09405 16.0065 9.77325 16.0065C10.4524 16.0065 11.0274 16.2419 11.4982 16.7126L14.7472 19.9616L19.9715 14.7372L16.7226 11.4701C16.2518 11.0148 16.0164 10.446 16.0164 9.7638C16.0164 9.08155 16.2518 8.50502 16.7226 8.03421L18.9993 5.75109C19.4771 5.28031 20.0556 5.04492 20.7348 5.04492C21.414 5.04492 21.989 5.28031 22.4598 5.75109L34.2493 17.5406C34.7201 18.0184 34.9555 18.5969 34.9555 19.2761C34.9555 19.9553 34.7201 20.5303 34.2493 21.0011L31.9662 23.2778C31.4966 23.7486 30.9207 23.984 30.2385 23.984C29.5562 23.984 28.9868 23.7486 28.5303 23.2778L25.2632 20.0289L20.0388 25.2533L23.2878 28.5022C23.7586 28.98 23.994 29.5585 23.994 30.2377C23.994 30.9169 23.7586 31.4919 23.2878 31.9627L21.0046 34.2073Z" fill="#1C1B1F"></path></g></svg>