<?xml version="1.0" encoding="UTF-8" standalone="no"?>
<svg
   height="24px"
   viewBox="0 -960 960 960"
   width="24px"
   fill="#5f6368"
   version="1.1"
   id="svg69"
   xmlns="http://www.w3.org/2000/svg"
   xmlns:svg="http://www.w3.org/2000/svg">

  <path
     d="m 320,-600 q 0,-17 11.5,-28.5 Q 343,-640 360,-640 h 80 q 0,17 11.5,28.5 11.5,11.5 28.5,11.5 17,0 28.5,-11.5 Q 520,-623 520,-640 h 80 q 17,0 28.5,11.5 11.5,11.5 11.5,28.5 v 240 q 0,17 -11.5,28.5 Q 617,-320 600,-320 h -80 q 0,-17 -11.5,-28.5 Q 497,-360 480,-360 q -17,0 -28.5,11.5 Q 440,-337 440,-320 h -80 q -17,0 -28.5,-11.5 Q 320,-343 320,-360 Z m 60,120 q 0,8 6,14 6,6 14,6 8,0 14,-6 6,-6 6,-14 0,-8 -6,-14 -6,-6 -14,-6 -8,0 -14,6 -6,6 -6,14 z m 80,0 q 0,8 6,14 6,6 14,6 8,0 14,-6 6,-6 6,-14 0,-8 -6,-14 -6,-6 -14,-6 -8,0 -14,6 -6,6 -6,14 z m 80,0 q 0,8 6,14 6,6 14,6 8,0 14,-6 6,-6 6,-14 0,-8 -6,-14 -6,-6 -14,-6 -8,0 -14,6 -6,6 -6,14 z M 40,-680 q 0,-33 23.5,-56.5 Q 87,-760 120,-760 h 720 q 33,0 56.5,23.5 23.5,23.5 23.5,56.5 v 400 q 0,33 -23.5,56.5 Q 873,-200 840,-200 H 120 Q 87,-200 63.5,-223.5 40,-247 40,-280 Z m 120,0 h -40 v 400 h 40 z m 80,0 v 400 h 480 v -400 z m 560,0 v 400 h 40 v -400 z m 0,0 h 40 z m -640,0 h -40 z"
  />
</svg>
