           
                        <svg
                          xmlns="http://www.w3.org/2000/svg"
                          xmlns:xlink="http://www.w3.org/1999/xlink"
                          width="500"
                          viewBox="0 0 375 374.999991"
                          height="500"
                          preserveAspectRatio="xMidYMid meet"
                        >
                          <defs>
                            <clipPath id="eedb1003fa">
                              <path
                                d="M 45.9375 192.371094 L 193.347656 192.371094 L 193.347656 321.222656 L 45.9375 321.222656 Z M 45.9375 192.371094 "
                                clip-rule="nonzero"
                              ></path>
                            </clipPath>
                            <clipPath id="4edff0cade">
                              <path
                                d="M 257.300781 53.539062 L 364.730469 53.539062 L 364.730469 209.527344 L 257.300781 209.527344 Z M 257.300781 53.539062 "
                                clip-rule="nonzero"
                              ></path>
                            </clipPath>
                          </defs>
                          <path
                            fill="#ffffff"
                            d="M 132.6875 90.789062 C 118.46875 90.789062 114.097656 91.167969 111.875 91.503906 C 108.136719 92.0625 104.902344 94.398438 103.1875 97.769531 L 57.953125 186.679688 C 55.8125 190.890625 56.410156 195.96875 59.46875 199.566406 C 62.421875 203.042969 63.207031 203.894531 64.066406 204.800781 C 64.519531 205.273438 65.03125 205.816406 67.710938 208.96875 C 67.878906 209.164062 68.050781 209.355469 68.230469 209.539062 C 68.429688 209.746094 68.617188 209.933594 68.808594 210.132812 C 69.117188 209.597656 69.449219 209.078125 69.816406 208.582031 C 70.363281 207.851562 71.050781 207.191406 71.816406 206.601562 C 71.875 206.464844 71.925781 206.324219 71.988281 206.1875 C 72.566406 205.253906 73.140625 204.320312 73.714844 203.386719 C 74.476562 202.457031 75.335938 201.660156 76.285156 200.992188 C 70.964844 194.746094 74.171875 198.796875 68.378906 191.984375 L 113.617188 103.070312 C 116.542969 102.632812 124.019531 102.488281 132.6875 102.488281 C 135.109375 102.488281 137.628906 102.5 140.164062 102.515625 C 140.816406 101.792969 141.539062 101.136719 142.316406 100.578125 C 143.210938 96.4375 146.304688 92.457031 150.21875 90.929688 C 144.46875 90.847656 138.316406 90.789062 132.6875 90.789062 "
                            fill-opacity="1"
                            fill-rule="nonzero"
                          ></path>
                          <path
                            fill="#ffffff"
                            d="M 320.558594 227.828125 C 319.609375 219.328125 314.492188 214.246094 310.722656 211.164062 C 307.964844 208.902344 305.285156 206.539062 302.449219 204.03125 C 301.152344 202.886719 299.855469 201.742188 298.550781 200.605469 C 296.4375 198.765625 294.320312 196.925781 292.203125 195.089844 C 288.394531 191.785156 284.589844 188.480469 280.792969 185.160156 C 278.347656 183.027344 275.917969 180.878906 273.484375 178.734375 C 270.863281 176.417969 268.152344 174.023438 265.457031 171.671875 C 263.59375 170.046875 261.707031 168.4375 259.882812 166.882812 C 258.308594 165.542969 256.679688 164.15625 255.113281 162.796875 C 250.53125 158.816406 245.875 154.742188 241.375 150.804688 L 238.652344 148.425781 C 234.050781 144.398438 229.449219 140.367188 224.847656 136.328125 C 223.902344 135.496094 217.804688 129.820312 209.867188 122.398438 C 209.460938 122.828125 209.035156 123.230469 208.59375 123.585938 C 204.089844 127.203125 198.613281 126.515625 194.234375 123.796875 C 204.898438 133.777344 215.699219 143.867188 217.136719 145.125 C 221.738281 149.164062 226.34375 153.203125 230.953125 157.234375 C 236.445312 162.035156 241.933594 166.84375 247.445312 171.632812 C 250.867188 174.601562 254.351562 177.507812 257.765625 180.488281 C 262.890625 184.964844 267.96875 189.492188 273.089844 193.96875 C 279.003906 199.140625 284.945312 204.277344 290.871094 209.429688 C 295.011719 213.035156 299.070312 216.738281 303.3125 220.214844 C 306.226562 222.605469 308.496094 225.210938 308.933594 229.128906 C 309.230469 231.765625 309.273438 234.347656 307.777344 236.625 C 306.257812 238.945312 304.363281 240.917969 302.066406 242.558594 C 300.152344 243.933594 297.335938 244.648438 294.496094 244.648438 C 291.53125 244.648438 288.535156 243.871094 286.492188 242.234375 C 282.398438 238.957031 278.011719 236.042969 273.734375 232.996094 C 267.5 228.550781 261.238281 224.140625 255.003906 219.691406 C 247.730469 214.496094 240.476562 209.277344 233.207031 204.074219 C 228.230469 200.511719 223.222656 196.996094 218.28125 193.382812 C 216.335938 191.960938 214.320312 190.960938 211.882812 190.644531 C 211.582031 190.609375 211.28125 190.589844 210.988281 190.589844 C 207.472656 190.589844 204.773438 193.332031 205.121094 196.964844 C 205.390625 199.710938 206.78125 201.839844 208.953125 203.417969 C 214.421875 207.394531 219.933594 211.300781 225.4375 215.230469 C 230.082031 218.542969 234.757812 221.828125 239.390625 225.15625 C 246.386719 230.1875 253.34375 235.265625 260.34375 240.292969 C 265.640625 244.097656 270.953125 247.882812 276.300781 251.613281 C 281.488281 255.230469 281.933594 260.65625 279.707031 265.355469 C 277.691406 269.613281 274.160156 271.601562 270.386719 271.601562 C 268.25 271.601562 266.039062 270.964844 263.988281 269.742188 C 257.851562 266.085938 252.25 261.535156 246.40625 257.386719 C 238.878906 252.042969 231.332031 246.722656 223.808594 241.367188 C 216.761719 236.355469 209.703125 231.355469 202.714844 226.265625 C 201.074219 225.074219 199.410156 224.410156 197.460938 224.410156 C 197.195312 224.410156 196.921875 224.421875 196.644531 224.449219 C 193.613281 224.722656 191.941406 225.898438 191.097656 228.632812 C 190.246094 231.398438 191.09375 234.15625 193.347656 235.792969 C 204.410156 243.832031 215.480469 251.867188 226.550781 259.898438 C 233.417969 264.878906 240.324219 269.800781 247.136719 274.84375 C 249.355469 276.484375 250.414062 278.910156 250.589844 281.667969 C 250.785156 284.773438 249.65625 287.457031 247.75 289.816406 C 245.460938 292.648438 242.558594 294.140625 239.5 294.140625 C 237.59375 294.140625 235.625 293.5625 233.703125 292.359375 C 230.707031 290.492188 227.871094 288.359375 224.984375 286.324219 C 221.910156 284.152344 218.878906 281.921875 215.792969 279.765625 C 211.332031 276.652344 206.816406 273.617188 202.363281 270.496094 C 196.269531 266.222656 190.226562 261.878906 184.128906 257.613281 C 182.835938 256.710938 181.609375 256.265625 180.4375 256.265625 C 178.890625 256.265625 177.433594 257.046875 176.042969 258.589844 C 173.65625 261.246094 173.695312 265.117188 176.222656 267.105469 C 179.320312 269.542969 182.46875 271.910156 185.625 274.277344 C 193.355469 280.070312 201.105469 285.839844 208.835938 291.636719 C 210.335938 292.761719 210.566406 293.875 209.789062 295.605469 C 207.628906 300.441406 203.386719 302.757812 198.796875 302.757812 C 197.480469 302.757812 196.132812 302.566406 194.796875 302.1875 C 192.035156 301.402344 189.566406 299.589844 186.957031 298.261719 C 186.828125 298.195312 186.050781 297.597656 184.847656 296.65625 C 184.867188 296.761719 184.890625 296.863281 184.910156 296.972656 C 185.421875 300.367188 184.09375 303.742188 182.113281 306.417969 C 181.671875 307.007812 181.136719 307.554688 180.542969 308.054688 C 180.984375 308.347656 181.261719 308.488281 181.640625 308.683594 C 182.203125 308.96875 182.867188 309.351562 183.574219 309.761719 C 185.6875 310.984375 188.320312 312.507812 191.601562 313.445312 C 193.972656 314.117188 196.394531 314.457031 198.796875 314.457031 C 208.28125 314.457031 216.585938 309.066406 220.46875 300.386719 C 220.8125 299.617188 221.09375 298.851562 221.316406 298.078125 C 223.28125 299.484375 225.3125 300.917969 227.507812 302.285156 C 231.230469 304.613281 235.382812 305.839844 239.5 305.839844 C 246.167969 305.839844 252.324219 302.761719 256.84375 297.175781 C 260.554688 292.59375 262.429688 287.308594 262.304688 281.84375 C 264.929688 282.804688 267.667969 283.300781 270.386719 283.300781 C 279.007812 283.300781 286.445312 278.464844 290.28125 270.363281 C 292.5 265.675781 293.136719 260.804688 292.328125 256.269531 C 293.042969 256.324219 293.769531 256.347656 294.496094 256.347656 C 299.914062 256.347656 305.023438 254.832031 308.878906 252.070312 C 312.335938 249.601562 315.253906 246.5625 317.5625 243.039062 C 321.121094 237.605469 321.035156 232.058594 320.558594 227.828125 "
                            fill-opacity="1"
                            fill-rule="nonzero"
                          ></path>
                          <path
                            fill="#ffffff"
                            d="M 198.429688 74.332031 C 192.285156 74.332031 186.214844 75.167969 180.179688 76.410156 C 171.964844 78.101562 164.25 79.453125 157.039062 83.734375 C 156.292969 84.171875 138.574219 92.152344 127.339844 104.695312 C 124.816406 109.15625 122.328125 113.632812 119.882812 118.132812 C 119.476562 118.875 119.199219 119.746094 119.109375 120.585938 C 118.597656 125.269531 118.203125 129.96875 117.679688 134.652344 C 117.222656 138.75 117.066406 142.945312 116.007812 146.890625 C 114.816406 151.324219 112.851562 155.566406 111.042969 159.816406 C 109.851562 162.628906 109.835938 165.316406 111.347656 167.90625 C 114.15625 172.695312 118.503906 175.273438 123.941406 175.835938 C 125.425781 175.988281 126.917969 176.066406 128.402344 176.066406 C 132.363281 176.066406 136.285156 175.507812 140.074219 174.285156 C 145.066406 172.679688 149.363281 169.714844 153.167969 166.101562 C 157.042969 162.417969 160.25 158.222656 162.664062 153.441406 C 164.523438 149.753906 165.855469 145.902344 166.542969 141.796875 C 166.933594 139.46875 167.023438 136.984375 168.710938 135.039062 C 169.398438 134.25 169.976562 133.375 170.664062 132.589844 C 173.6875 129.128906 177.46875 126.664062 181.941406 125.976562 C 183.445312 125.746094 184.953125 125.628906 186.453125 125.628906 C 189.910156 125.628906 193.351562 126.242188 196.671875 127.488281 C 198.414062 128.140625 200.09375 128.851562 201.421875 130.289062 C 203.664062 132.714844 205.960938 135.113281 208.371094 137.378906 C 211.214844 140.042969 214.203125 142.554688 217.136719 145.125 C 221.738281 149.164062 226.34375 153.203125 230.953125 157.234375 C 236.445312 162.035156 241.933594 166.84375 247.445312 171.632812 C 250.867188 174.601562 254.351562 177.507812 257.765625 180.488281 C 262.890625 184.964844 267.96875 189.492188 273.089844 193.96875 C 279.003906 199.140625 284.945312 204.277344 290.871094 209.429688 C 295.011719 213.035156 299.070312 216.738281 303.3125 220.214844 C 303.417969 220.300781 303.535156 220.339844 303.671875 220.339844 C 305.148438 220.339844 308.539062 215.566406 312.5 209.925781 C 315.738281 205.320312 319.171875 198.984375 321.414062 193.820312 C 321.714844 193.132812 321.75 192.082031 321.441406 191.410156 C 318.972656 186.003906 316.410156 180.640625 313.84375 175.277344 C 309.800781 166.8125 305.722656 158.371094 301.675781 149.910156 C 297.476562 141.128906 293.304688 132.332031 289.117188 123.542969 C 286.511719 118.078125 283.910156 112.605469 281.292969 107.144531 C 278.25 100.820312 275.1875 94.503906 272.128906 88.1875 C 271.707031 87.300781 271.105469 86.941406 270.019531 86.867188 C 264.046875 86.453125 258.050781 86.132812 252.128906 85.308594 C 248.066406 84.742188 244.089844 83.480469 240.105469 82.410156 C 234.496094 80.902344 228.9375 79.210938 223.324219 77.734375 C 215.878906 75.773438 208.289062 74.621094 200.601562 74.371094 C 199.875 74.34375 199.152344 74.332031 198.429688 74.332031 Z M 198.429688 85.253906 C 199.039062 85.253906 199.648438 85.265625 200.242188 85.28125 C 206.96875 85.5 213.800781 86.515625 220.542969 88.292969 C 223.445312 89.054688 226.433594 89.90625 229.320312 90.734375 C 231.910156 91.46875 234.589844 92.230469 237.273438 92.953125 C 238.085938 93.171875 238.898438 93.398438 239.71875 93.628906 C 243.152344 94.585938 246.703125 95.578125 250.625 96.125 C 255.3125 96.773438 259.957031 97.128906 264.476562 97.4375 L 264.898438 98.308594 C 267.085938 102.828125 269.273438 107.347656 271.449219 111.875 C 273.476562 116.097656 275.488281 120.324219 277.5 124.550781 L 279.257812 128.242188 C 280.726562 131.324219 282.195312 134.410156 283.664062 137.492188 C 286.378906 143.207031 289.097656 148.914062 291.828125 154.621094 C 293.855469 158.867188 295.898438 163.113281 297.9375 167.359375 C 299.957031 171.566406 301.980469 175.773438 303.996094 179.984375 C 305.964844 184.101562 307.984375 188.328125 309.960938 192.585938 C 308.03125 196.550781 305.671875 200.652344 303.566406 203.648438 C 303.25 204.097656 302.894531 204.605469 302.519531 205.136719 C 302.324219 204.964844 302.128906 204.789062 301.933594 204.617188 C 300.636719 203.472656 299.34375 202.328125 298.039062 201.195312 C 295.925781 199.355469 293.808594 197.519531 291.691406 195.679688 C 287.882812 192.371094 284.074219 189.066406 280.277344 185.746094 C 277.832031 183.609375 275.398438 181.460938 272.96875 179.316406 C 270.34375 177.003906 267.632812 174.609375 264.945312 172.261719 C 263.085938 170.636719 261.199219 169.03125 259.375 167.476562 C 257.800781 166.136719 256.175781 164.75 254.601562 163.386719 C 250.011719 159.398438 245.351562 155.320312 240.84375 151.378906 L 238.140625 149.011719 C 233.535156 144.984375 228.933594 140.949219 224.335938 136.917969 C 223.488281 136.171875 222.632812 135.433594 221.785156 134.691406 C 219.695312 132.882812 217.722656 131.175781 215.839844 129.410156 C 213.464844 127.1875 211.167969 124.746094 209.433594 122.871094 C 206.226562 119.40625 202.363281 117.957031 200.507812 117.261719 C 195.992188 115.570312 191.261719 114.710938 186.453125 114.710938 C 184.40625 114.710938 182.335938 114.867188 180.292969 115.183594 C 173.554688 116.210938 167.382812 119.75 162.4375 125.40625 C 161.851562 126.082031 161.371094 126.707031 160.988281 127.214844 C 160.792969 127.46875 160.574219 127.757812 160.46875 127.882812 C 156.953125 131.933594 156.296875 136.417969 155.910156 139.09375 C 155.867188 139.398438 155.824219 139.699219 155.773438 139.996094 C 155.289062 142.875 154.355469 145.667969 152.914062 148.523438 C 151.144531 152.035156 148.699219 155.285156 145.648438 158.183594 C 142.609375 161.070312 139.6875 162.9375 136.730469 163.890625 C 134.140625 164.722656 131.339844 165.148438 128.402344 165.148438 C 127.308594 165.148438 126.1875 165.089844 125.054688 164.972656 C 123.210938 164.78125 122.167969 164.1875 121.421875 163.316406 C 121.597656 162.910156 121.769531 162.507812 121.945312 162.101562 C 123.617188 158.222656 125.34375 154.214844 126.550781 149.726562 C 127.585938 145.875 127.9375 142.101562 128.246094 138.769531 C 128.339844 137.753906 128.429688 136.796875 128.53125 135.867188 C 128.816406 133.34375 129.058594 130.816406 129.296875 128.375 C 129.480469 126.484375 129.667969 124.53125 129.871094 122.621094 C 131.914062 118.875 134.050781 115.027344 136.234375 111.15625 C 141.925781 105.113281 150.738281 99 161.214844 93.855469 C 161.8125 93.5625 162.171875 93.382812 162.613281 93.125 C 167.710938 90.097656 173.671875 88.878906 180.570312 87.476562 L 182.382812 87.105469 C 188.519531 85.839844 193.617188 85.253906 198.429688 85.253906 "
                            fill-opacity="1"
                            fill-rule="nonzero"
                          ></path>
                          <g clip-path="url(#eedb1003fa)">
                            <path
                              fill="#ffffff"
                              d="M 168.144531 277.910156 C 168.140625 277.917969 168.140625 277.917969 168.136719 277.921875 C 168.140625 277.917969 168.140625 277.917969 168.144531 277.910156 Z M 163.527344 282.601562 C 163.523438 282.601562 163.523438 282.601562 163.519531 282.601562 C 163.523438 282.601562 163.523438 282.601562 163.527344 282.601562 Z M 148.269531 289.152344 C 148.492188 289.152344 148.710938 289.164062 148.933594 289.191406 C 150.769531 289.414062 152.367188 290.554688 153.179688 292.21875 C 154.015625 293.9375 153.917969 295.421875 153.878906 295.976562 C 153.851562 296.738281 153.789062 297.453125 153.726562 298.136719 C 153.636719 299.199219 153.542969 300.292969 153.660156 300.929688 C 154.074219 303.132812 155.371094 305.125 157.617188 307.023438 C 160.71875 309.640625 163.480469 310.703125 166.578125 310.476562 C 167.511719 310.40625 168.265625 310.0625 169.109375 309.324219 C 172.195312 306.621094 180.242188 296.953125 181.773438 294.109375 C 182.175781 293.355469 182.570312 292.238281 182.011719 290.257812 C 180.824219 286.046875 178.121094 283.144531 173.757812 281.394531 C 169.898438 279.855469 168.042969 280.597656 166.738281 281.535156 C 165.328125 282.542969 163.894531 282.597656 163.40625 282.613281 C 161.804688 282.757812 160.214844 282.1875 159.070312 281.050781 C 157.894531 279.886719 157.3125 278.253906 157.484375 276.605469 L 157.492188 276.488281 C 157.511719 275.96875 157.550781 275.003906 157.984375 273.910156 C 158.828125 271.773438 159.386719 268.695312 156.203125 263.867188 C 153.699219 260.074219 150.316406 257.746094 145.855469 256.765625 C 142.773438 256.085938 140.378906 256.449219 138.089844 257.957031 C 137.738281 258.1875 137.375 258.402344 136.894531 258.6875 L 136.226562 259.082031 C 134.234375 260.273438 131.710938 260.078125 129.925781 258.59375 C 128.144531 257.109375 127.492188 254.664062 128.304688 252.492188 C 130.734375 245.964844 129.332031 240.941406 123.75 236.199219 C 118.101562 231.394531 112.917969 230.78125 106.945312 234.210938 C 104.765625 235.464844 102.007812 235.0625 100.269531 233.238281 C 98.539062 231.414062 98.277344 228.640625 99.636719 226.523438 C 104.148438 219.503906 103.648438 213.671875 98.0625 208.164062 C 92.527344 202.710938 86.8125 201.90625 80.132812 205.664062 C 73.5 213.164062 71.539062 215.515625 70.683594 216.535156 L 70.300781 216.996094 C 69.148438 218.359375 68.019531 219.734375 66.890625 221.113281 C 64.980469 223.441406 63.011719 225.84375 60.9375 228.164062 C 58.347656 231.054688 57.113281 233.582031 56.945312 236.347656 C 56.675781 240.734375 58.074219 244.417969 61.21875 247.605469 C 63.773438 250.199219 66.84375 251.695312 70.601562 252.183594 C 73.328125 252.542969 75.808594 252.03125 78.191406 250.625 C 78.726562 250.308594 79.308594 249.882812 80.042969 249.34375 C 80.472656 249.035156 80.921875 248.707031 81.414062 248.359375 C 83.28125 247.046875 85.769531 247.03125 87.648438 248.328125 C 89.527344 249.621094 90.40625 251.945312 89.847656 254.160156 C 89.804688 254.320312 89.78125 254.453125 89.757812 254.5625 C 89.660156 255.023438 89.511719 255.714844 89.128906 256.5 C 87.988281 258.839844 87.960938 261.328125 89.058594 264.097656 C 91.230469 269.597656 95.003906 273.035156 100.582031 274.609375 C 104.738281 275.78125 107.8125 275.304688 110.550781 273.0625 C 110.9375 272.742188 111.28125 272.515625 111.644531 272.269531 C 111.796875 272.167969 111.980469 272.046875 112.203125 271.894531 C 114.019531 270.636719 116.417969 270.597656 118.273438 271.800781 C 120.132812 273.003906 121.078125 275.207031 120.675781 277.382812 C 120.625 277.628906 120.597656 277.839844 120.570312 278.027344 C 120.476562 278.664062 120.359375 279.457031 119.988281 280.371094 C 119.351562 281.9375 119.472656 283.691406 120.425781 286.617188 C 122.035156 291.570312 128.070312 296.9375 134.496094 297.035156 C 137.96875 297.066406 140.21875 296.058594 142.019531 293.605469 C 142.539062 292.898438 143.074219 292.28125 143.546875 291.738281 C 143.730469 291.527344 143.90625 291.320312 144.082031 291.109375 C 145.128906 289.859375 146.664062 289.152344 148.269531 289.152344 Z M 165.734375 321.425781 C 160.371094 321.425781 155.394531 319.433594 150.574219 315.363281 C 147.328125 312.625 145.050781 309.496094 143.78125 306.035156 C 141.015625 307.363281 137.851562 308.011719 134.332031 307.949219 C 123.929688 307.796875 113.257812 299.90625 110.039062 289.992188 C 109.617188 288.699219 109.214844 287.253906 108.953125 285.699219 C 105.464844 286.453125 101.675781 286.261719 97.621094 285.121094 C 88.792969 282.628906 82.320312 276.746094 78.90625 268.113281 C 78.175781 266.273438 77.703125 264.425781 77.480469 262.59375 C 74.8125 263.242188 72.039062 263.382812 69.1875 263.011719 C 63.011719 262.207031 57.714844 259.601562 53.445312 255.273438 C 48.148438 249.902344 45.589844 243.128906 46.046875 235.679688 C 46.367188 230.441406 48.574219 225.597656 52.796875 220.882812 C 54.71875 218.734375 56.527344 216.53125 58.445312 214.191406 C 59.613281 212.765625 60.78125 211.34375 61.96875 209.941406 L 62.300781 209.539062 C 63.285156 208.363281 65.328125 205.910156 72.535156 197.769531 C 72.902344 197.355469 73.328125 197 73.800781 196.714844 C 85.082031 189.90625 96.421875 191.214844 105.726562 200.386719 C 111.871094 206.445312 114.417969 213.652344 113.289062 221.125 C 119.332031 220.871094 125.25 223.140625 130.824219 227.878906 C 136.847656 233 140.054688 239.042969 140.351562 245.703125 C 142.851562 245.363281 145.476562 245.496094 148.214844 246.101562 C 155.476562 247.707031 161.230469 251.660156 165.316406 257.855469 C 167.90625 261.777344 169.3125 265.699219 169.53125 269.582031 C 172.136719 269.542969 174.910156 270.097656 177.816406 271.261719 C 185.328125 274.265625 190.414062 279.8125 192.519531 287.296875 C 193.734375 291.59375 193.351562 295.628906 191.390625 299.28125 C 188.898438 303.914062 179.785156 314.488281 176.300781 317.539062 C 173.683594 319.832031 170.683594 321.117188 167.390625 321.367188 C 166.835938 321.40625 166.28125 321.425781 165.734375 321.425781 "
                              fill-opacity="1"
                              fill-rule="nonzero"
                            ></path>
                          </g>
                          <path
                            fill="#ffffff"
                            d="M 84.753906 258.28125 C 83.523438 258.28125 82.285156 257.867188 81.261719 257.015625 C 78.949219 255.085938 78.632812 251.640625 80.5625 249.328125 L 100.0625 225.929688 C 101.992188 223.613281 105.433594 223.300781 107.75 225.230469 C 110.066406 227.160156 110.378906 230.601562 108.453125 232.917969 L 88.953125 256.316406 C 87.871094 257.613281 86.320312 258.28125 84.753906 258.28125 "
                            fill-opacity="1"
                            fill-rule="nonzero"
                          ></path>
                          <path
                            fill="#ffffff"
                            d="M 115.171875 281.679688 C 113.976562 281.679688 112.773438 281.289062 111.761719 280.484375 C 109.410156 278.597656 109.027344 275.164062 110.914062 272.8125 L 129.632812 249.414062 C 131.515625 247.058594 134.953125 246.675781 137.304688 248.558594 C 139.660156 250.441406 140.042969 253.878906 138.15625 256.234375 L 119.4375 279.632812 C 118.359375 280.980469 116.773438 281.679688 115.171875 281.679688 "
                            fill-opacity="1"
                            fill-rule="nonzero"
                          ></path>
                          <path
                            fill="#ffffff"
                            d="M 147.148438 301.179688 C 145.960938 301.179688 144.765625 300.792969 143.765625 300 C 141.402344 298.128906 141 294.695312 142.871094 292.332031 L 157.691406 273.613281 C 159.5625 271.246094 163 270.847656 165.359375 272.71875 C 167.722656 274.59375 168.125 278.023438 166.253906 280.390625 L 151.433594 299.109375 C 150.355469 300.46875 148.761719 301.179688 147.148438 301.179688 "
                            fill-opacity="1"
                            fill-rule="nonzero"
                          ></path>
                          <path
                            fill="#ffffff"
                            d="M 83.285156 66.539062 C 82.09375 66.539062 81.71875 66.90625 81.203125 67.953125 C 79.203125 72.03125 77.066406 76.316406 74.675781 81.046875 C 70.5 89.308594 66.308594 97.558594 62.109375 105.808594 C 60.859375 108.257812 59.597656 110.703125 58.339844 113.148438 C 56.742188 116.242188 55.148438 119.339844 53.574219 122.449219 C 52.628906 124.324219 51.707031 126.21875 50.789062 128.109375 C 49.890625 129.957031 48.996094 131.800781 48.074219 133.628906 C 45.402344 138.929688 42.660156 144.292969 40.003906 149.480469 L 38.769531 151.902344 C 37.625 154.132812 36.484375 156.359375 35.335938 158.589844 C 33.707031 161.75 32.082031 164.917969 30.46875 168.089844 C 29.449219 170.101562 28.441406 172.117188 27.433594 174.136719 C 25.9375 177.140625 24.386719 180.246094 22.804688 183.292969 C 22.261719 184.34375 22.539062 185.886719 23.367188 186.40625 C 25.261719 187.601562 27.324219 188.648438 29.507812 189.757812 L 32.976562 191.53125 C 37.816406 194.007812 42.8125 196.570312 47.769531 198.925781 C 48.40625 199.230469 49.363281 199.410156 50.195312 199.375 C 50.6875 199.355469 51.355469 199.328125 52.371094 197.257812 C 55.449219 190.960938 58.652344 184.609375 61.75 178.46875 L 64.007812 173.976562 C 67.566406 166.914062 71.132812 159.863281 74.714844 152.816406 C 77.054688 148.210938 79.402344 143.613281 81.75 139.015625 C 84.761719 133.117188 87.769531 127.214844 90.769531 121.3125 C 92.726562 117.453125 94.664062 113.582031 96.601562 109.714844 C 98.167969 106.585938 99.734375 103.457031 101.3125 100.339844 C 104.117188 94.78125 107.109375 88.878906 110.09375 83.121094 C 110.839844 81.671875 110.847656 79.8125 109.179688 78.90625 C 107.800781 78.160156 106.40625 77.460938 104.925781 76.722656 C 104.210938 76.363281 103.488281 76.003906 102.773438 75.640625 C 101.378906 74.925781 99.984375 74.210938 98.59375 73.496094 C 95.382812 71.847656 92.066406 70.144531 88.796875 68.542969 C 88.238281 68.265625 87.6875 67.972656 87.140625 67.671875 C 86.273438 67.207031 84.96875 66.503906 84.542969 66.539062 L 84.136719 66.574219 L 83.726562 66.554688 C 83.566406 66.546875 83.421875 66.539062 83.285156 66.539062 Z M 49.988281 210.296875 C 47.574219 210.296875 45.144531 209.769531 43.082031 208.789062 C 37.980469 206.363281 32.90625 203.765625 28 201.25 L 24.558594 199.492188 C 22.253906 198.320312 19.871094 197.105469 17.546875 195.644531 C 11.953125 192.121094 9.964844 184.324219 13.113281 178.261719 C 14.65625 175.292969 16.1875 172.226562 17.664062 169.265625 C 18.679688 167.222656 19.699219 165.179688 20.734375 163.144531 C 22.351562 159.957031 23.988281 156.777344 25.625 153.589844 C 26.765625 151.375 27.910156 149.15625 29.042969 146.933594 L 30.28125 144.507812 C 32.929688 139.335938 35.664062 133.988281 38.320312 128.714844 C 39.21875 126.933594 40.09375 125.136719 40.96875 123.339844 C 41.894531 121.433594 42.851562 119.464844 43.832031 117.519531 C 45.417969 114.386719 47.023438 111.265625 48.632812 108.148438 C 49.886719 105.714844 51.136719 103.285156 52.378906 100.851562 C 56.574219 92.613281 60.757812 84.367188 64.929688 76.121094 C 67.304688 71.425781 69.421875 67.183594 71.402344 63.140625 C 73.882812 58.089844 78.332031 55.441406 83.972656 55.636719 C 87.476562 55.449219 90.277344 56.953125 92.335938 58.070312 C 92.757812 58.296875 93.179688 58.527344 93.605469 58.734375 C 96.964844 60.386719 100.328125 62.113281 103.582031 63.785156 C 104.964844 64.496094 106.347656 65.203125 107.730469 65.910156 C 108.425781 66.261719 109.117188 66.609375 109.808594 66.957031 C 111.304688 67.703125 112.84375 68.472656 114.378906 69.300781 C 121.128906 72.957031 123.457031 81.058594 119.789062 88.140625 C 116.828125 93.859375 113.96875 99.5 111.058594 105.261719 C 109.488281 108.375 107.925781 111.488281 106.363281 114.605469 C 104.417969 118.492188 102.472656 122.375 100.503906 126.25 C 97.503906 132.167969 94.492188 138.074219 91.476562 143.984375 C 89.128906 148.574219 86.785156 153.167969 84.449219 157.765625 C 80.871094 164.796875 77.3125 171.839844 73.765625 178.886719 L 71.5 183.386719 C 68.414062 189.492188 65.226562 195.8125 62.183594 202.050781 C 58.972656 208.613281 54.121094 210.152344 50.613281 210.285156 C 50.402344 210.292969 50.195312 210.296875 49.988281 210.296875 "
                            fill-opacity="1"
                            fill-rule="nonzero"
                          ></path>
                          <g clip-path="url(#4edff0cade)">
                            <path
                              fill="#ffffff"
                              d="M 294.488281 64.664062 C 291.066406 66.210938 287.601562 67.859375 284.246094 69.453125 L 281.332031 70.839844 C 280.035156 71.453125 278.746094 72.070312 277.457031 72.691406 C 274.980469 73.878906 272.421875 75.109375 269.855469 76.28125 C 268.804688 76.761719 268.050781 78.566406 268.28125 79.242188 C 268.730469 80.554688 269.394531 81.925781 270.09375 83.378906 L 270.269531 83.730469 C 271.710938 86.710938 273.160156 89.683594 274.609375 92.660156 C 276.636719 96.804688 278.660156 100.953125 280.652344 105.113281 C 281.847656 107.613281 283.019531 110.152344 284.148438 112.609375 C 285.1875 114.867188 286.226562 117.125 287.296875 119.371094 C 288.726562 122.375 290.183594 125.359375 291.636719 128.351562 C 292.996094 131.132812 294.351562 133.921875 295.691406 136.71875 C 297.402344 140.300781 299.097656 143.898438 300.789062 147.488281 C 302.207031 150.503906 303.625 153.519531 305.058594 156.527344 C 308.136719 162.988281 311.226562 169.441406 314.3125 175.894531 L 320.253906 188.316406 C 321.703125 191.347656 323.152344 194.378906 324.597656 197.414062 C 324.839844 197.863281 326.042969 198.402344 326.570312 198.300781 C 329.25 197.339844 331.640625 196.375 333.835938 195.363281 C 339.484375 192.746094 344.128906 190.507812 348.445312 188.324219 C 350.199219 187.4375 352.191406 186.359375 353.703125 185.089844 C 354.125 184.738281 354.117188 183.710938 353.894531 183.226562 C 350.976562 177.007812 347.960938 170.699219 345.050781 164.59375 L 342.652344 159.5625 C 338.667969 151.199219 334.679688 142.835938 330.683594 134.480469 C 329.03125 131.023438 327.371094 127.578125 325.710938 124.128906 C 323.882812 120.320312 322.054688 116.515625 320.230469 112.703125 C 317.46875 106.925781 314.722656 101.140625 311.976562 95.355469 L 307.394531 85.710938 C 304.386719 79.378906 301.375 73.042969 298.390625 66.699219 C 297.449219 64.703125 296.78125 64.464844 296.023438 64.453125 C 295.746094 64.496094 295.46875 64.53125 295.191406 64.566406 C 294.957031 64.59375 294.648438 64.632812 294.488281 64.664062 Z M 326.480469 209.222656 C 321.726562 209.222656 316.796875 206.425781 314.742188 202.113281 C 313.296875 199.085938 311.847656 196.054688 310.398438 193.027344 L 304.460938 180.609375 C 301.367188 174.148438 298.28125 167.6875 295.203125 161.21875 C 293.761719 158.199219 292.335938 155.167969 290.910156 152.140625 C 289.226562 148.566406 287.542969 144.992188 285.839844 141.425781 C 284.511719 138.65625 283.167969 135.894531 281.820312 133.132812 C 280.351562 130.117188 278.882812 127.097656 277.4375 124.070312 C 276.347656 121.777344 275.285156 119.472656 274.226562 117.167969 C 273.113281 114.75 271.96875 112.25 270.804688 109.832031 C 268.824219 105.695312 266.8125 101.574219 264.796875 97.449219 C 263.339844 94.460938 261.882812 91.476562 260.4375 88.484375 L 260.269531 88.132812 C 259.453125 86.453125 258.613281 84.710938 257.949219 82.769531 C 255.859375 76.640625 259.238281 69.125 265.320312 66.347656 C 267.789062 65.21875 270.300781 64.015625 272.730469 62.847656 C 274.039062 62.222656 275.34375 61.589844 276.65625 60.972656 L 279.554688 59.597656 C 283 57.957031 286.566406 56.261719 290.125 54.652344 C 291.53125 54.019531 292.863281 53.851562 293.835938 53.730469 C 294.066406 53.699219 294.296875 53.675781 294.523438 53.632812 L 294.945312 53.554688 L 295.375 53.542969 C 299.375 53.421875 304.859375 54.8125 308.265625 62.046875 C 311.25 68.378906 314.253906 74.703125 317.257812 81.023438 L 321.839844 90.671875 C 324.582031 96.449219 327.328125 102.226562 330.082031 107.996094 C 331.898438 111.796875 333.726562 115.597656 335.550781 119.394531 C 337.214844 122.851562 338.878906 126.308594 340.535156 129.765625 C 344.535156 138.128906 348.523438 146.496094 352.511719 154.863281 L 354.90625 159.890625 C 357.828125 166.011719 360.84375 172.335938 363.777344 178.585938 C 365.835938 182.972656 365.445312 189.492188 360.722656 193.457031 C 358.359375 195.4375 355.683594 196.898438 353.378906 198.0625 C 348.941406 200.308594 344.191406 202.601562 338.421875 205.269531 C 335.925781 206.425781 333.238281 207.515625 330.195312 208.601562 C 329.007812 209.027344 327.75 209.222656 326.480469 209.222656 "
                              fill-opacity="1"
                              fill-rule="nonzero"
                            ></path>
                          </g>
                        </svg>
                 