        
                        <svg
                          xmlns="http://www.w3.org/2000/svg"
                          xmlns:xlink="http://www.w3.org/1999/xlink"
                          width="500"
                          viewBox="0 0 375 374.999991"
                          height="500"
                          preserveAspectRatio="xMidYMid meet"
                        >
                          <defs>
                            <clipPath id="451852d312">
                              <path
                                d="M 37.5 15 L 320.25 15 L 320.25 360 L 37.5 360 Z M 37.5 15 "
                                clip-rule="nonzero"
                              ></path>
                            </clipPath>
                          </defs>
                          <g clip-path="url(#451852d312)">
                            <path
                              fill="#ffffff"
                              d="M 182.988281 15.359375 C 182.910156 15.359375 182.835938 15.359375 182.757812 15.359375 C 148.746094 15.484375 121.277344 43.15625 121.402344 77.164062 C 121.476562 97.230469 131.140625 115.015625 146.03125 126.207031 C 135.667969 127.632812 124.394531 131.601562 115.421875 140.109375 C 104.941406 150.050781 98.28125 165.789062 92.363281 180.019531 L 64.359375 180.121094 C 62.914062 155.753906 61.960938 134.550781 66.46875 124.515625 C 69.933594 116.800781 77.242188 116.113281 90.703125 115.964844 C 90.917969 115.960938 91.128906 115.949219 91.339844 115.925781 C 94.5625 119.519531 99.238281 121.777344 104.4375 121.777344 C 104.460938 121.777344 104.480469 121.777344 104.503906 121.777344 C 114.210938 121.742188 122.046875 113.847656 122.011719 104.140625 C 121.976562 94.457031 114.117188 86.632812 104.441406 86.632812 C 104.417969 86.632812 104.398438 86.632812 104.375 86.632812 C 95.117188 86.667969 87.5625 93.847656 86.910156 102.933594 C 75.863281 103.113281 61.210938 104.316406 54.542969 119.15625 C 48.476562 132.660156 49.914062 157.621094 51.265625 180.171875 L 43.960938 180.195312 C 42.226562 180.203125 40.566406 180.898438 39.34375 182.128906 C 38.125 183.359375 37.441406 185.023438 37.449219 186.757812 L 37.675781 248.800781 C 37.683594 250.53125 38.378906 252.191406 39.609375 253.414062 C 40.832031 254.628906 42.488281 255.3125 44.210938 255.3125 L 44.238281 255.3125 L 67.308594 255.226562 L 67.671875 353.210938 C 67.675781 354.941406 68.371094 356.601562 69.601562 357.824219 C 70.828125 359.039062 72.480469 359.722656 74.207031 359.722656 L 74.230469 359.722656 L 286.523438 358.9375 C 290.132812 358.925781 293.050781 355.988281 293.035156 352.378906 L 292.675781 254.394531 L 313.511719 254.320312 C 317.125 254.304688 320.039062 251.367188 320.027344 247.757812 L 319.796875 185.71875 C 319.785156 182.117188 316.859375 179.207031 313.261719 179.207031 L 313.238281 179.207031 L 274.265625 179.347656 C 274.203125 179.1875 274.136719 179.027344 274.0625 178.871094 C 267.042969 163.929688 259.269531 147.121094 248.21875 137.15625 C 240.03125 129.777344 230.414062 126.335938 221.421875 125.058594 C 235.585938 113.726562 244.636719 96.265625 244.566406 76.710938 C 244.4375 42.777344 216.894531 15.359375 182.988281 15.359375 Z M 104.441406 99.703125 C 106.917969 99.703125 108.929688 101.707031 108.941406 104.1875 C 108.949219 106.675781 106.941406 108.695312 104.457031 108.707031 C 101.960938 108.707031 99.949219 106.703125 99.9375 104.222656 C 99.929688 101.734375 101.9375 99.714844 104.421875 99.703125 Z M 182.988281 28.429688 C 209.695312 28.429688 231.394531 50.03125 231.492188 76.761719 C 231.589844 103.550781 209.953125 125.347656 183.164062 125.445312 C 183.101562 125.445312 183.042969 125.445312 182.980469 125.445312 C 156.273438 125.445312 134.574219 103.847656 134.476562 77.117188 C 134.378906 50.328125 156.015625 28.53125 182.804688 28.429688 C 182.867188 28.429688 182.925781 28.429688 182.988281 28.429688 Z M 212.53125 137.515625 C 221.675781 137.515625 231.667969 139.839844 239.464844 146.867188 C 247.195312 153.835938 253.34375 165.691406 259.859375 179.402344 L 106.566406 179.964844 C 111.957031 167.300781 117.214844 156.429688 124.417969 149.597656 C 132.515625 141.914062 143.792969 138.929688 154.023438 138.644531 C 154.476562 138.632812 154.96875 138.625 155.417969 138.625 C 155.492188 138.625 155.5625 138.625 155.636719 138.625 C 164.996094 138.625 172.96875 140.855469 181.832031 143.371094 C 182.417969 143.539062 183.019531 143.621094 183.617188 143.621094 C 184.339844 143.621094 185.058594 143.503906 185.746094 143.265625 C 194.265625 140.332031 201.847656 137.761719 211.1875 137.53125 C 211.574219 137.519531 211.941406 137.515625 212.332031 137.515625 C 212.398438 137.515625 212.464844 137.515625 212.53125 137.515625 Z M 306.75 192.300781 L 306.929688 241.269531 L 292.625 241.324219 L 292.546875 219.355469 C 292.53125 215.753906 289.609375 212.84375 286.011719 212.84375 L 285.984375 212.84375 L 73.691406 213.625 C 71.960938 213.628906 70.300781 214.324219 69.078125 215.554688 C 67.855469 216.785156 67.175781 218.449219 67.179688 220.183594 L 67.261719 242.152344 L 50.726562 242.214844 L 50.542969 193.246094 Z M 279.496094 225.9375 L 279.554688 241.371094 L 279.582031 249.011719 L 279.941406 345.890625 L 80.71875 346.625 L 80.382812 255.175781 L 80.355469 247.824219 L 80.277344 226.671875 Z M 279.496094 225.9375 "
                              fill-opacity="1"
                              fill-rule="nonzero"
                            ></path>
                          </g>
                        </svg>
                     