<svg
   height="24px"
   viewBox="0 -960 960 960"
   width="24px"
   fill="#5f6368"
   version="1.1"
   xmlns="http://www.w3.org/2000/svg">
  <path
     d="m 341.10104,-50.88685 v -140.0001 H 14.43425 v -93.3332 h 326.66679 q 38.4999,0 65.9164,27.4165 27.4168,27.4168 27.4168,65.9167 v 140.0001 z m 186.6664,0 v -140.0001 q 0,-38.4999 27.4168,-65.9167 27.4168,-27.4165 65.9167,-27.4165 h 326.66651v 93.3332 H 621.10094v 140.0001 z m -326.6665,-279.9999 q -58.3334,0 -99.1666,-40.8335 -40.83346,-40.8332 -40.83346,-99.1666 v -186.6667 h 839.99996 v 186.6667 q 0,58.3334 -40.8332,99.1666 -40.8335,40.8335 -99.1666,40.8335 z m 0,-93.3335 h 560.0001 q 19.8332,0 33.2499,-13.4167 13.4167,-13.4167 13.4167,-33.2499 v -93.3332 h -653.3333 v 93.3332 q 0,19.8332 13.4167,33.2499 13.4164,13.4167 33.2499,13.4167 z M 61.10088,-704.22015 v -93.3335 h 280.00016 v -46.6666 q 0,-19.8332 13.4164,-33.2499 13.4167,-13.4167 33.2502,-13.4167 h 186.6667 q 19.8332,0 33.2499,13.4167 13.4167,13.4167 13.4167,33.2499 v 46.6666 h 279.9999 v 93.3335 z m 93.33346,279.9999 v -139.9998 z"
     style="stroke-width:1.1668;fill:#000000" />
  <g style="fill:#5f6368" transform="translate(2.4464836,22.018344)">
    <path
       d="M 440,-440 H 200 v -80 h 240 v -240 h 80 v 240 h 240 v 80 H 520 v 240 h -80 z"
       style="fill:#b3b3b3" />
  </g>
</svg>
