 <svg
   width="27.064001"
   height="24.012444"
   viewBox="0 0 7.1606836 6.3532924"
   xmlns="http://www.w3.org/2000/svg">
  <g id="layer1" transform="translate(-99.130162,-121.76677)">
    <path
       style="fill:#000000;stroke-width:0.0139922"
       d="m 99.770825,128.09736 c -0.295231,-0.0716 -0.535371,-0.31299 -0.612913,-0.61625 -0.02673,-0.1048 -0.02775,-0.16117 -0.02775,-1.87474 0,-1.19091 0.0059,-1.80217 0.01494,-1.87555 0.02861,-0.20674 0.123814,-0.44604 0.244754,-0.61622 0.17382,-0.24458 0.478341,-0.45817 0.762964,-0.53517 0.19515,-0.0528 0.30813,-0.0571 1.53851,-0.0571 1.32053,0 1.28858,-0.003 1.3799,0.0865 0.056,0.0544 0.0953,0.17028 0.081,0.23904 -0.0152,0.073 -0.0724,0.15926 -0.129,0.19442 l -0.0527,0.0328 -1.29422,0.007 -1.29422,0.007 -0.11954,0.0428 c -0.279554,0.10011 -0.474194,0.3097 -0.545107,0.58697 -0.0273,0.10635 -0.02805,0.1559 -0.02805,1.86342 0,1.90334 -0.0043,1.80734 0.07415,1.89085 0.07977,0.0856 0.227835,0.11209 0.328697,0.0589 0.0285,-0.0148 0.16501,-0.12892 0.30325,-0.25304 0.13825,-0.1241 0.27046,-0.23613 0.29382,-0.24895 0.0388,-0.0212 0.18539,-0.0238 1.65851,-0.0304 l 1.61605,-0.007 0.0927,-0.0371 c 0.25983,-0.10428 0.41958,-0.271 0.52013,-0.5428 0.0258,-0.0701 0.0294,-0.12037 0.0366,-0.51834 0.007,-0.37431 0.0116,-0.44708 0.0312,-0.48273 0.11765,-0.21252 0.42396,-0.19524 0.50949,0.0286 0.0193,0.0504 0.0215,0.11953 0.0167,0.49765 -0.006,0.41949 -0.007,0.44506 -0.0421,0.57485 -0.14035,0.52253 -0.55096,0.91004 -1.08077,1.01998 -0.11836,0.0246 -0.2162,0.0258 -1.62787,0.0262 l -1.50195,0.002 -0.19103,0.17188 c -0.24449,0.22003 -0.2845,0.25114 -0.38955,0.30298 -0.1659,0.0819 -0.387778,0.10653 -0.567077,0.0631 z m 0.637045,-2.24415 c -0.11628,-0.0527 -0.18208,-0.20188 -0.14449,-0.32738 0.0227,-0.0754 0.11622,-0.16914 0.18915,-0.18938 0.076,-0.021 0.9173,-0.021 0.99331,0 0.0729,0.0203 0.16655,0.11401 0.18914,0.18938 0.0375,0.1255 -0.0284,0.2746 -0.14449,0.32738 -0.0539,0.0246 -0.0968,0.0266 -0.54131,0.0266 -0.44452,0 -0.48735,-0.004 -0.54131,-0.0266 z m 1.93348,0.007 c -0.0592,-0.0292 -0.0821,-0.0502 -0.12415,-0.1119 -0.0339,-0.0501 -0.0365,-0.0653 -0.0365,-0.20263 3.5e-4,-0.43503 0.15366,-0.88263 0.43022,-1.25516 0.0635,-0.0856 0.43018,-0.46332 1.17079,-1.20623 0.59306,-0.59496 1.10979,-1.10606 1.14827,-1.13583 0.22944,-0.17751 0.53619,-0.22945 0.80285,-0.13588 0.49917,0.17512 0.71347,0.78217 0.43448,1.23074 -0.0502,0.0808 -2.14896,2.19526 -2.31468,2.33208 -0.37229,0.30735 -0.81703,0.48049 -1.28024,0.49834 -0.15014,0.007 -0.1975,0.004 -0.23087,-0.0136 z m 0.5686,-0.60188 c 0.16496,-0.0478 0.29118,-0.10753 0.45279,-0.21408 0.12571,-0.0829 0.25018,-0.20233 1.22729,-1.17784 1.14333,-1.14149 1.14326,-1.14142 1.14397,-1.26448 0.001,-0.0629 -0.0312,-0.14382 -0.0738,-0.18959 -0.0795,-0.0853 -0.22736,-0.11197 -0.32871,-0.0592 -0.0719,0.0374 -2.21988,2.19337 -2.30196,2.31055 -0.0904,0.12907 -0.17111,0.29191 -0.21981,0.44348 -0.0426,0.1331 -0.0509,0.18521 -0.0291,0.18521 0.007,0 0.0651,-0.0152 0.12943,-0.0338 z m -2.50208,-0.52486 c -0.11628,-0.0529 -0.18208,-0.2019 -0.14449,-0.32741 0.0227,-0.0754 0.11622,-0.16911 0.18915,-0.18935 0.076,-0.021 0.9173,-0.021 0.99331,0 0.0729,0.0203 0.16655,0.114 0.18914,0.18935 0.0375,0.12551 -0.0284,0.27462 -0.14449,0.32741 -0.0539,0.0246 -0.0968,0.0265 -0.54131,0.0265 -0.44452,0 -0.48735,-0.003 -0.54131,-0.0265 z" />
  </g>
</svg>

