<?xml version="1.0" encoding="UTF-8" standalone="no"?>
<svg
   height="24px"
   viewBox="0 -960 960 960"
   width="24px"
   fill="#5f6368"
   version="1.1"
   id="svg69"
   xml:space="preserve"
   xmlns="http://www.w3.org/2000/svg"
   xmlns:svg="http://www.w3.org/2000/svg"><defs
     id="defs73" /><path
     d="m 110.7503,-536.42072 q 15.67419,-40.30524 5.03814,-71.65362 -10.63606,-31.34853 -36.386668,-62.69691 -36.946386,-44.78363 -48.702051,-84.52895 -11.755681,-39.74532 -3.918561,-94.60522 h 87.32795 q -8.95673,42.54436 -2.79903,69.41452 6.15769,26.87003 31.9083,58.21856 42.54437,51.50109 54.29997,91.24641 11.75575,39.74532 0.55977,94.60521 z m 179.13401,0 q 15.67435,-40.30524 5.59808,-71.65362 -10.07628,-31.34853 -35.82691,-62.69691 -36.94644,-44.78363 -49.26182,-84.52895 -12.31554,-39.74532 -4.47837,-94.60522 h 87.32783 q -8.95671,42.54436 -2.79888,69.41452 6.1577,26.87003 31.90815,58.21856 42.54436,51.50109 54.30012,91.24641 11.7556,39.74532 0.55978,94.60521 z m 179.13416,0 q 15.67419,-40.30524 5.59792,-71.65362 -10.07628,-31.34853 -35.82673,-62.69691 -36.94646,-44.78363 -49.26199,-84.52895 -12.31538,-39.74532 -4.47836,-94.60522 h 87.32798 q -8.95673,42.54436 -2.79904,69.41452 6.15784,26.87003 31.90831,58.21856 42.54436,51.50109 54.29996,91.24641 11.75576,39.74532 0.55978,94.60521 z M 136.50076,-88.585447 q -55.979441,0 -95.164963,-39.185553 Q 2.1502217,-166.95655 2.1502217,-222.936 V -446.85362 H 630.23919 q 5.59791,-38.066 30.22884,-66.6155 24.63106,-28.5495 60.45779,-40.86503 l 207.1239,-69.41438 27.98956,85.08856 -207.12372,69.41453 q -13.4351,4.47837 -21.83204,16.23397 -8.39679,11.75576 -8.39679,26.31039 V -222.936 q 0,55.97945 -39.18571,95.165 -39.18554,39.185553 -95.16499,39.185553 z m 0,-89.567083 h 447.83527 q 19.03299,0 31.90831,-12.87531 12.87531,-12.87516 12.87531,-31.90816 V -357.28654 H 91.717299 V -222.936 q 0,19.033 12.875311,31.90816 12.87516,12.87531 31.90815,12.87531 z m 223.91763,-89.56708 z"
     id="path67"
     style="fill:#000000;stroke-width:1.11955" /><g
     style="fill:#5f6368"
     id="g200"
     transform="translate(-462.2184,-334.72055)"><path
       d="m 647.84179,-45.05589 v -80 h 280 v 80 z m 0,-160 v -80 h 440.00001 v 80 z m 0,-160 v -80 h 440.00001 v 80 z m 360.00001,560 v -123 l 221,-220 q 9,-9 20,-13 11,-4 22,-4 12,0 23,4.5 11,4.5 20,13.5 l 37,37 q 8,9 12.5,20.000001 4.5,10.999999 4.5,21.999999 0,11 -4,22.5 -4,11.5 -13,20.5 l -220,220 z m 300,-263 -37,-37 z m -240,203 h 38 l 121,-122 -18,-18.9999997 -19,-18.0000003 -122,121 z m 141,-140.9999997 -19,-18.0000003 37,37 z"
       id="path191"
       style="fill:#b3b3b3" /></g></svg>
