<svg
   height="27.571865"
   viewBox="0 -960 1155.7187 1102.8745"
   width="28.892965"
   fill="#5f6368"
   version="1.1"
   xmlns="http://www.w3.org/2000/svg">
  <g
     style="fill:#e6e6e6"
     transform="translate(-184.64067,58.837918)">
    <path
       d="M 574.5102,-62.890536 Q 447.71525,-121.41133 368.46823,-239.67198 289.2216,-357.93254 289.2216,-506.67283 q 0,-31.69871 3.04787,-62.17815 3.04807,-30.47964 10.3629,-59.73992 l -56.08211,32.91798 -48.76738,-84.12361 232.86379,-134.10995 134.10997,231.64444 -85.34258,48.76728 L 413.5782,-648.098 q -13.41117,32.91798 -20.11655,68.27446 -6.70576,35.35625 -6.70576,73.15071 0,118.26064 64.61667,215.18559 64.6168,96.92484 171.90482,143.25397 z M 947.57962,-654.19366 v -97.53467 h 132.88988 q -56.0825,-69.49327 -135.32823,-107.89747 -79.24664,-38.40419 -168.24701,-38.40419 -67.05503,0 -126.79495,20.72599 -59.73981,20.72618 -109.72626,58.52065 l -48.76737,-85.34258 q 60.95908,-42.67134 132.89088,-67.05503 71.93161,-24.38367 152.3977,-24.38367 96.31521,0 184.09642,35.96593 87.78102,35.96585 157.27282,104.24005 v -67.05503 h 97.5374 v 268.22002 z M 915.88107,77.315372 683.0173,-56.794616 817.12735,-288.43926 l 84.1235,48.76728 -69.49334,119.47982 q 143.86349,-20.72598 239.56749,-130.45236 95.7072,-109.72636 95.7072,-257.24748 0,-13.41104 -0.6094,-24.99303 -0.6105,-11.58226 -3.0473,-23.77425 h 98.7534 q 1.217,12.19199 1.8274,23.77425 0.6104,11.58199 0.6104,24.99303 0,164.58969 -98.1439,294.4326 -98.144,129.842812 -255.41858,174.9525 l 53.64391,31.6987272 z"
       style="fill:#e6e6e6;stroke-width:1.21917" />
  </g>
  <path
     d="m 592.53823,-51.62079 q -83,0 -156,-31.500002 -73,-31.499998 -127,-85.500008 -53.99999,-54 -85.5,-127 -31.5,-73 -31.5,-156 0,-83 31.5,-156 31.50001,-73 85.5,-127 54,-54 127,-85.5 73,-31.49997 156,-31.49997 83,0 156,31.49997 73,31.5 127,85.5 54,54 85.5,127 31.50004,73 31.50004,156 0,83 -31.50004,156 -31.5,73 -85.5,127 -54,54.00001 -127,85.500008 -73,31.500002 -156,31.500002 z m -40,-82 v -78.00001 q -33,0 -56.5,-23.5 -23.5,-23.5 -23.5,-56.5 v -40 l -191.99999,-192 q -3,18 -5.5,36 -2.5,18 -2.5,36 0,121 79.49999,212 79.5,91.00001 200.5,106.00001 z m 276,-102.00001 q 20,-22 36,-47.5 16,-25.5 26.5,-53 10.5,-27.5 16,-56.5 5.5,-29 5.5,-59 0,-98 -54.5,-179 -54.5,-81 -145.5,-117 v 16 q 0,33 -23.5,56.5 -23.5,23.5 -56.5,23.5 h -80 v 80 q 0,17 -11.5,28.5 -11.5,11.5 -28.5,11.5 h -80 v 80 h 240 q 17,0 28.5,11.5 11.5,11.5 11.5,28.5 v 120 h 40 q 26,0 47,15.5 21,15.5 29,40.5 z"
     style="fill:#1a1a1a" />
</svg>
